/* XPM */
static char *_429c4f394114bd8be36f18e77e5ef78Z1VjWNfWDnr8gHuf[] = {
/* columns rows colors chars-per-pixel */
"50 50 10 1 ",
"  c black",
". c None",
"X c #FF4C61",
"o c #FFE5A5",
"O c #FF6D65",
"+ c #CCC08E",
"@ c #665651",
"# c #191615",
"$ c #332623",
"% c white",
/* pixels */
"                                                  ",
"                                                  ",
"                                                  ",
"                                                  ",
"                                                  ",
"                                                  ",
"                                                  ",
"                                                  ",
"                    ..........                    ",
"                 ................                 ",
"              ......................              ",
"             ........................             ",
"           ............................           ",
"          ..............................          ",
"         ................................         ",
"        ..................................        ",
"       ....................................       ",
"      ......................................      ",
"     ........................................     ",
"     ........................................     ",
"    ..........................................    ",
"   ............................................   ",
"   ............................................   ",
"   ............................................   ",
"  ..........................X...................  ",
"  .........................XX.....X.............  ",
"  .......................XXoX...................  ",
" ...................XX..XooooX................... ",
" .............XX....Xo.XoooooX................... ",
" .............X........XooooX...X....X........... ",
" .....................XooooooX.XX...XXX.......... ",
" ....................XooooooooXoX...XoXX......... ",
" ....................XooooXoooooX..XXooX......... ",
" ....................XXoXXooooooXX.XoooXX........ ",
" ..................X..XXXooooooXXXXoooooX........ ",
" ..................XX.XXoooooooXXXoooooXX........ ",
" ..................XX.XoooooooooXXoooooXX........ ",
"  .................XoXXoooooooooXooooooX........  ",
"  ................XXooXooooooooooooooooX........  ",
"  ................XoooooooXXXXooooooooXX........  ",
"   ...............XoooooXXXXXXXooooXXoX........   ",
"   ..............XoooooXXXXXXXXooooXXXX........   ",
"   ..............XXooooXXXOOXXXXooXXXX.........   ",
"    ............XXXooooO+++OOX++ooXX++........    ",
"     .........@@+XXX+++#++@$O@@@+oX+@@@......     ",
"     ......@@@@@@+X+@@$#@@@$#@@@@$X@@@@@.....     ",
"      ...@@@@@$$$$#@@$$#$@$$$@@@@$$#@@@$$...      ",
"       .@@@@$$$$$#$@$$$##$$$$#@@$$$$#$$$$$.       ",
"        @@@$$$$###$$$$###$$$$##$$$$$##$$$$        ",
"         $$$######$$$$###$$$#####$$####$$         "
};
