/* XPM */
static char *_e4ff764fa254042f3982fa0ea8cc13b7bIqfBqOi3zaBpbH[] = {
/* columns rows colors chars-per-pixel */
"32 32 5 1 ",
"  c #72751B",
". c #7F8226",
"X c #787B21",
"o c #656C17",
"O c white",
/* pixels */
"                                ",
"                                ",
"                                ",
"                                ",
"                                ",
"                                ",
"                                ",
"                        .       ",
"                   ..X  XX      ",
"                    .XX oX  .   ",
"                    oXXXo XXo   ",
"                   .XoXX  XXo   ",
"                   oXXoX  oo    ",
"                    oXoo        ",
"                                ",
"                                ",
"                                ",
"                                ",
"                                ",
"                                ",
"                                ",
"                                ",
"                                ",
"                                ",
"    ..                          ",
"     .XX   ..                   ",
"     oXX  X.                    ",
"      oo XXX                    ",
"         XXo                    ",
"         oo                     ",
"                                ",
"                                "
};
