/* XPM */
static char *a8c6a461332240c4cc8b2584102fe3ebezYiUCyy0syuwawE[] = {
/* columns rows colors chars-per-pixel */
"32 32 128 2 ",
"   c None",
".  c #53460F",
"X  c #524C13",
"o  c #594E15",
"O  c #524F1D",
"+  c #4E5111",
"@  c #555613",
"#  c #5B5614",
"$  c #555912",
"%  c #5C5C14",
"&  c #55541A",
"*  c #5D561F",
"=  c #5D5C1C",
"-  c #615D16",
";  c #60571F",
":  c #625B1C",
">  c #5E6115",
",  c #636416",
"<  c #696717",
"1  c #666816",
"2  c #696A17",
"3  c #646419",
"4  c #6B641B",
"5  c #666819",
"6  c #6C6C1A",
"7  c #70671E",
"8  c #716D1D",
"9  c #6F701A",
"0  c #73721D",
"q  c #514C21",
"w  c #574D21",
"e  c #584F2B",
"r  c #545024",
"t  c #5D5522",
"y  c #5C5A20",
"u  c #5F5E20",
"i  c #5D5A26",
"p  c #5B552B",
"a  c #5D582A",
"s  c #575136",
"d  c #5C513A",
"f  c #615D29",
"g  c #626120",
"h  c #656123",
"j  c #656124",
"k  c #666324",
"l  c #6D6720",
"z  c #6A6726",
"x  c #6B6423",
"c  c #6B6920",
"v  c #6F6920",
"b  c #726B20",
"n  c #736A22",
"m  c #756B20",
"M  c #756B22",
"N  c #736E22",
"B  c #756D21",
"V  c #756F21",
"C  c #766F21",
"Z  c #776F21",
"A  c #746C21",
"S  c #717020",
"D  c #727120",
"F  c #727021",
"G  c #727121",
"H  c #777121",
"J  c #747321",
"K  c #767220",
"L  c #757322",
"P  c #757521",
"I  c #767520",
"U  c #777621",
"Y  c #777721",
"T  c #767422",
"R  c #767423",
"E  c #747020",
"W  c #787720",
"Q  c #787721",
"!  c #797721",
"~  c #797622",
"^  c #787722",
"/  c #797623",
"(  c #797126",
")  c #797624",
"_  c #797625",
"`  c #787725",
"'  c #797721",
"]  c #787821",
"[  c #7B7822",
"{  c #7A7823",
"}  c #7A7923",
"|  c #7D7B24",
" . c #7D7B25",
".. c #7D7A26",
"X. c #7D7B26",
"o. c #7D7C25",
"O. c #7F7C25",
"+. c #7F7C26",
"@. c #7F7D26",
"#. c #7F7C27",
"$. c #7B7922",
"%. c #7E7328",
"&. c #7E7529",
"*. c #7E7C28",
"=. c #5F5A46",
"-. c #675D4D",
";. c #686253",
":. c #776E5F",
">. c #796D5F",
",. c #7C7365",
"<. c #807C26",
"1. c #807D26",
"2. c #807E27",
"3. c #827E27",
"4. c #827D28",
"5. c #817F29",
"6. c #827F28",
"7. c #837F2B",
"8. c #827D2C",
"9. c #817D28",
"0. c #837E73",
"q. c #82802A",
"w. c #848129",
"e. c #83802C",
"r. c #89852D",
"t. c #8A852D",
"y. c #868076",
"u. c #89847B",
/* pixels */
"                                                                ",
"                                C                               ",
"                              8...( 7                           ",
"                          8 C e.q.W 0 C                         ",
"                    M H 7.O.1.7.*._ 9 2 H &.                    ",
"                  M W 1.w.r.1.O.R 0 0 , 0 7.%.                  ",
"                    0 7.r.r.O.W ..R 6 1 8 H 8                   ",
"                b 8 0 [ 7.1.7.O.5 % & % 6 0 0 4                 ",
"                8 [ O.0 0 W R R > & & % , 8 8 #                 ",
"                6 [ 0 5 9 0 0 8 , , 1 6 5 % , , #               ",
"                N W W 0 0 0 R 8 2 6 D f % > 2 2 %               ",
"              % 3 R _ ..6 - 1 6 0 0 6 a i 6 0 6 # #             ",
"            8 , , 5 5 6 : = , 0 0 D % q % 6 % 3 > 3 :           ",
"          4 W 0 2 5 5 2 5 = , 6 5 @ & O @ % $ , 6 0 - 3         ",
"          3 H ..0 9 0 0 0 2 2 , @ + > % $ % , 6 6 0 2 6         ",
"          3 5 _ H 6 0 [ 0 9 6 , $ $ , 1 5 % , 2 0 6 0 0         ",
"            , 5 j j D H z c % = = , , 6 3 y > * : @ 5 C         ",
"              - , * h 0 u p r & 3 6 0 2 5 2 1 g % % D b         ",
"            3 , 2 , 2 2 1 5 = % % 6 2 @ % < 2 6 2 3 l           ",
"            8 0 0 0 6 , , , , 6 1 , $ O @ , 9 , #               ",
"          4 W [ [ W 6 , , 5 0 0 6 2 * O @ , 0 2                 ",
"            C ..7.H 8 2 < t x 6 0 v * % , 2 8 M                 ",
"                b - # , - X : 4 ; t % 2 6 6                     ",
"                      #   . o e s w 4 8 7 7                     ",
"                              d =.    4                         ",
"                              -.;.                              ",
"                              :.,.                              ",
"                              ,.0.                              ",
"                              ,.y.                              ",
"                              ,.u.                              ",
"                                >.                              ",
"                                                                "
};
