/* XPM */
static char *_0e3527e0ef34ca7f1991e2ad8990940cn0eskXgVPfn6WBq[] = {
/* columns rows colors chars-per-pixel */
"32 32 236 2 ",
"   c None",
".  c #553A2A",
"X  c #563C2B",
"o  c #573C2C",
"O  c #573F2F",
"+  c #583E2E",
"@  c #583F2E",
"#  c #583F2F",
"$  c #563E30",
"%  c #543F35",
"&  c #58402F",
"*  c #59402F",
"=  c #564335",
"-  c #574435",
";  c #584030",
":  c #594030",
">  c #584031",
",  c #5A4333",
"<  c #5B4535",
"1  c #5B4537",
"2  c #5D4635",
"3  c #564339",
"4  c #55433A",
"5  c #56433A",
"6  c #564439",
"7  c #57453C",
"8  c #584639",
"9  c #594739",
"0  c #5B4638",
"q  c #5A4738",
"w  c #58463B",
"e  c #5C4738",
"r  c #59473D",
"t  c #5A483A",
"y  c #5B483A",
"u  c #5A493B",
"i  c #5B493B",
"p  c #5E4839",
"a  c #5D493A",
"s  c #5D493B",
"d  c #5E4A3B",
"f  c #58483D",
"g  c #5A493C",
"h  c #5B4B3D",
"j  c #5A4B3E",
"k  c #5F4B3C",
"l  c #5E4B3D",
"z  c #604D3F",
"x  c #584940",
"c  c #584A42",
"v  c #594B43",
"b  c #594C43",
"n  c #5F4E41",
"m  c #594B44",
"M  c #594C44",
"N  c #5A4D45",
"B  c #5B4E45",
"V  c #594C46",
"C  c #5B4E46",
"Z  c #5B4F46",
"A  c #5B4E47",
"S  c #5B4F47",
"D  c #5C4F45",
"F  c #5A4E49",
"G  c #5A4F49",
"H  c #5B4F49",
"J  c #5C4F48",
"K  c #5A5045",
"L  c #5B5046",
"P  c #5B5047",
"I  c #5C5146",
"U  c #5D5047",
"Y  c #5C5246",
"T  c #5C5247",
"R  c #5D5247",
"E  c #5C5048",
"W  c #5C5049",
"Q  c #5D5149",
"!  c #5C5248",
"~  c #5D5348",
"^  c #5C514A",
"/  c #5D514A",
"(  c #5D514B",
")  c #5D524B",
"_  c #5D534B",
"`  c #5D5449",
"'  c #5D544A",
"]  c #5E554A",
"[  c #5E554B",
"{  c #5F554B",
"}  c #5D524C",
"|  c #5E534D",
" . c #5E544C",
".. c #5F544C",
"X. c #5E544D",
"o. c #5F554E",
"O. c #614F42",
"+. c #605043",
"@. c #615145",
"#. c #615246",
"$. c #615346",
"%. c #645447",
"&. c #605348",
"*. c #615449",
"=. c #635448",
"-. c #61544A",
";. c #61554A",
":. c #61554B",
">. c #63554A",
",. c #62554B",
"<. c #62564B",
"1. c #63564B",
"2. c #64574B",
"3. c #61574D",
"4. c #62564C",
"5. c #63574C",
"6. c #62574D",
"7. c #61574E",
"8. c #61574F",
"9. c #64574C",
"0. c #63584D",
"q. c #61584E",
"w. c #61584F",
"e. c #63584E",
"r. c #62584F",
"t. c #65584C",
"y. c #665A4D",
"u. c #64594E",
"i. c #65594E",
"p. c #64594F",
"a. c #655A4E",
"s. c #6E5D4C",
"d. c #6C5D4E",
"f. c #6F5E4E",
"g. c #605750",
"h. c #625950",
"j. c #625951",
"k. c #635A51",
"l. c #625A52",
"z. c #635B52",
"x. c #645A51",
"c. c #665B50",
"v. c #665B51",
"b. c #645A52",
"n. c #645B52",
"m. c #655B52",
"M. c #645C53",
"N. c #655D53",
"B. c #645C54",
"V. c #645D54",
"C. c #655D54",
"Z. c #665D54",
"A. c #665D55",
"S. c #655E55",
"D. c #665E55",
"F. c #675E55",
"G. c #645C56",
"H. c #655E56",
"J. c #655F57",
"K. c #665E56",
"L. c #665F56",
"P. c #675F56",
"I. c #665F57",
"U. c #6A5E52",
"Y. c #666057",
"T. c #676057",
"R. c #6B6155",
"E. c #686057",
"W. c #656058",
"Q. c #676058",
"!. c #676159",
"~. c #676259",
"^. c #67615A",
"/. c #67625A",
"(. c #696158",
"). c #686159",
"_. c #696159",
"`. c #686259",
"'. c #68625A",
"]. c #69625A",
"[. c #69635A",
"{. c #69635B",
"}. c #6A625A",
"|. c #6A635A",
" X c #68645A",
".X c #69645A",
"XX c #69645B",
"oX c #69655B",
"OX c #6A645A",
"+X c #6A655B",
"@X c #6B655B",
"#X c #6B645C",
"$X c #6A655C",
"%X c #6A665C",
"&X c #6B665D",
"*X c #6A645E",
"=X c #6A655E",
"-X c #6C675E",
";X c #6D685F",
":X c #706255",
">X c #726354",
",X c #746758",
"<X c #766A5B",
"1X c #716B5E",
"2X c #716B5F",
"3X c #776B5C",
"4X c #776C5D",
"5X c #776C5E",
"6X c #786D5E",
"7X c #696660",
"8X c #6A6660",
"9X c #6F6960",
"0X c #6F6A60",
"qX c #6F6B61",
"wX c #6F6B62",
"eX c #706B61",
"rX c #706B62",
"tX c #726C60",
"yX c #706C62",
"uX c #706C63",
"iX c #706D63",
"pX c #726D64",
"aX c #726E65",
"sX c #736F66",
"dX c #7A7164",
"fX c #7B7164",
"gX c #79776D",
"hX c #7B796F",
"jX c #7C7B71",
"kX c #868379",
"lX c #87877B",
"zX c #87867C",
"xX c #88877B",
"cX c #88867C",
"vX c #88877C",
"bX c #88877D",
/* pixels */
"                                                                ",
"                                                                ",
"                                                                ",
"                                                                ",
"s.6X5X5X5X5X5X5X3X>X5X5X5X5X5X5X5X5X5X5X5X5X>X3X5X5X5X5X5X5X6Xs.",
"<XlXxXbXbXbXbXbXkXdXzXbXbXbXbXbXbXbXbXbXbXzXdXkXbXbXbXzXbXxXlX,X",
"      9XsXsXsXsXeXU.yXyXyXyXyXyXyXyXyXyXyX9XE.9XeXeX9X9XyX      ",
"      z.-X;X-X-X@Xy.$X$X$X$X$X$X$X$X$X$X$X@Xy.@X$X$X@X@X@X      ",
"      4.`.$X$X$X@Xy.@X@X@X@X@X@X`.`.`.`.`.`.9.`.@X@X@X@X@X      ",
"      ..Z.`.`.@X`.2.`.`.`.`.`.`.`.`.`.`.`.`.@./.`.`./././.      ",
"      ! ..Z.Z.Z.Z.@.Z.Z.Z.Z.Z.Z.Z.Z.Z.Z.Z.Z.@.Z.Z.Z.Z.Z.Z.      ",
"      6 q f f f t t q & @ : : $ $ : : @ $ q f t t t t t t       ",
"      P P I I I I I -                     = I ! I I I I I       ",
"      P P ! ' ' ' q                         q ' ' ' ' ' '       ",
"      Z Z D 4.z.4.:                         : -.z.z.4.4.&.      ",
"      Z Z f e.Z.c.d                         < y.Z.y.@.c.4.      ",
"      ! ! Z Z./.`.z                         q Z./.M.4././.      ",
"      ! ! Z z./.T.l                         d Z.Z.z.-.Z.Z.      ",
"      m Z b ! c.-.                            -.Z.4.n e.-.      ",
"      H ! ..g.Z.Z.:                         d Z././.T././.      ",
"      H ! ..g.Z.Z.<                         d Z.Z.Z.Z.Z.Z.      ",
"      Z Z J ! 4.c.:                         d c.Z.Z.M.Z.Z.      ",
"      m Z 4 x ! -.                            y.E.c.-.E.Z.      ",
"      H H x ! | Z.l                         l $X7X/.c.7X7X      ",
"      H H x H | z.e                         l $X7X/.c.7X7X      ",
"      4 4 % 4 7 r o                         2 -.-.@.n -.-.      ",
"      -.4.4.4.4.4.l                         s.yX2X2X2X2X2X      ",
"      Z.`.`.`.`.`.O.                        >XjXhXgXgXgXgX      ",
"      I ' 4.e.e.e.t                         %.$X`.`.`.`.`.      ",
"        . X X X X                             & @ @ @ @         ",
"                                                                ",
"                                                                "
};
