/* XPM */
static char *result[] = {
/* columns rows colors chars-per-pixel */
"32 32 5 1 ",
"  c black",
". c #010101",
"X c #000001",
"o c #020202",
"O c white",
/* pixels */
"        .       .. .   .        ",
".  ..   .                   .   ",
".   ..  .         ..   ..     . ",
". ..   ...   . .. .    ..       ",
"   ..    .   ...   .            ",
"         .X     .    .      .   ",
"         ..   . ..    .   . .   ",
"         .   ....      .     .. ",
"             .. . ..       . .  ",
"  . . .  .  ... ...       .     ",
"        .   ..  ...        .    ",
".  .    .  .......            ..",
".          .........         .  ",
".    .      .o.o..o..        .  ",
" .   ...... .ooo..oo..       .  ",
" .oo . . .o.  .oo.....    ..    ",
" .. ..  ....  o......... ...    ",
"      . .  ...oo.. ....o.  .    ",
"   .  .   ... ...   ...... ..  .",
"      ............. .. . .  ....",
". .   .  . .. ..oo...       ..  ",
"  .         ..  o.    .    ..   ",
"           . . .... ...         ",
"  .        .... .o  . .     ..  ",
"         .     ..  .. .         ",
"         .    .....      .      ",
"     .  ..... .  .  .    . .    ",
"        .. ..  .   ...  .. .    ",
"         . .  ..    ..   .      ",
"      ..      .o                ",
" ..           ..      ....      ",
"  .      .                  .   "
};
