/* XPM */
static char *result[] = {
/* columns rows colors chars-per-pixel */
"32 32 203 2 ",
"   c #323A64",
".  c #343B68",
"X  c #35426D",
"o  c #2F5776",
"O  c #2D597B",
"+  c #2D5779",
"@  c #305774",
"#  c #3D5276",
"$  c #39587A",
"%  c #384871",
"&  c #44587A",
"*  c #3D5E82",
"=  c #3F6A86",
"-  c #476887",
";  c #516282",
":  c #54728C",
">  c #4A7592",
",  c #4B7D94",
"<  c #457A90",
"1  c #517E93",
"2  c #4A758D",
"3  c #61748D",
"4  c #7E68B4",
"5  c #825FB4",
"6  c #876CBA",
"7  c #8963B8",
"8  c #9663BE",
"9  c #877ABC",
"0  c #9B7ABE",
"q  c #A975BE",
"w  c #9C63C1",
"e  c #A263C4",
"r  c #AB6BC7",
"t  c #A868C5",
"y  c #B56BC9",
"u  c #A872C1",
"i  c #BD73CB",
"p  c #C879CC",
"a  c #C76DD3",
"s  c #D06ED7",
"d  c #CF73D6",
"f  c #CE7CD2",
"g  c #D873DB",
"h  c #DA7BDB",
"j  c #D374D9",
"k  c #E379DF",
"l  c #E073DE",
"z  c #E77EE2",
"x  c #4F899A",
"c  c #578399",
"v  c #5E9CA8",
"b  c #5A97A3",
"n  c #689EA9",
"m  c #779BAE",
"M  c #6D9CB1",
"N  c #64A2AD",
"B  c #73A7AF",
"V  c #67ADB0",
"C  c #72ABB1",
"Z  c #6FB3B9",
"A  c #7EBEBC",
"S  c #7DC5C1",
"D  c #7ED2C4",
"F  c #8789BF",
"G  c #9F80B9",
"H  c #85AAB9",
"J  c #E5ABBE",
"K  c #ECBBBD",
"L  c #8BC3BE",
"P  c #8B8DC3",
"I  c #8486C2",
"U  c #9F84C1",
"Y  c #989CCB",
"T  c #939FD5",
"R  c #AA83C1",
"E  c #A996C4",
"W  c #A496C5",
"Q  c #BB85C5",
"!  c #8DA1C6",
"~  c #9BA3CC",
"^  c #9BA8CE",
"/  c #94A6CB",
"(  c #94B3CC",
")  c #9FAFD6",
"_  c #BEACCE",
"`  c #AAB1CF",
"'  c #A1ACD2",
"]  c #ACBBDB",
"[  c #A9B7D4",
"{  c #BFB7D7",
"}  c #99BCF2",
"|  c #AFBEE3",
" . c #AABDF7",
".. c #A4BCF6",
"X. c #C987C6",
"o. c #D583CD",
"O. c #CD86D0",
"+. c #DF81DB",
"@. c #DD9BD4",
"#. c #C196C6",
"$. c #E487DD",
"%. c #EC9FDF",
"&. c #D3A1CC",
"*. c #C7B2CF",
"=. c #C7BEDA",
"-. c #D8B6D7",
";. c #E9A7CB",
":. c #F0AFCD",
">. c #EBB6C2",
",. c #EEABDC",
"<. c #E9A4DA",
"1. c #F1A1DE",
"2. c #F3BAD3",
"3. c #E681E3",
"4. c #EC8BE5",
"5. c #E884E6",
"6. c #EE93EA",
"7. c #EF96E9",
"8. c #F095EA",
"9. c #F39CEA",
"0. c #F392E4",
"q. c #EEA5E4",
"w. c #F3A4EC",
"e. c #FAADEC",
"r. c #F8ACEA",
"t. c #F7BCE1",
"y. c #F6B2EA",
"u. c #F9B5EE",
"i. c #FABAEC",
"p. c #F6B7E5",
"a. c #F8B4F1",
"s. c #85C6C3",
"d. c #85CDC7",
"f. c #9AD9CF",
"g. c #8ECAD7",
"h. c #95D8D8",
"j. c #9EC9D9",
"k. c #B8C3DF",
"l. c #ACDFDC",
"z. c #A4D5D8",
"x. c #B2DCD8",
"c. c #91E9CF",
"v. c #96E3CF",
"b. c #8EE7D0",
"n. c #95EAD2",
"m. c #9FEDDB",
"M. c #97E3D9",
"N. c #A6EADA",
"B. c #B1ECD8",
"V. c #ABF2DE",
"C. c #B9F0DF",
"Z. c #98C5E9",
"A. c #9BD7E3",
"S. c #A6CCE9",
"D. c #B4C9E6",
"F. c #A3D5E6",
"G. c #A2DFE4",
"H. c #ABD8E7",
"J. c #BFD6EB",
"K. c #ADCBF2",
"L. c #B6C8F8",
"P. c #B9D3F3",
"I. c #BFD8F5",
"U. c #B8E4E1",
"Y. c #B5E1ED",
"T. c #ABF0E3",
"R. c #B5F3E7",
"E. c #BDE3F2",
"W. c #DBC6DF",
"Q. c #F4C9C7",
"!. c #FBDCCE",
"~. c #FDDADC",
"^. c #FDD8D7",
"/. c #F8C5D1",
"(. c #FBE6CD",
"). c #FCEDCD",
"_. c #F9E1C6",
"`. c #FCE9D0",
"'. c #FEE3DB",
"]. c #FEF3D6",
"[. c #FFF5DA",
"{. c #FFFCDD",
"}. c #FFF9D7",
"|. c #CACDEA",
" X c #CFDBE2",
".X c #C9DAF7",
"XX c #FDCBEB",
"oX c #FBC7E9",
"OX c #FED8EB",
"+X c #FED2F1",
"@X c #FEDAF3",
"#X c #C8E9E9",
"$X c #CEF0EB",
"%X c #CDE0F9",
"&X c #D6EAF7",
"*X c #DBF5FE",
"=X c #D5F4EC",
"-X c #FEE4E8",
";X c #FFF4E3",
":X c #FFFEE3",
">X c #FFF2E9",
",X c #FFFFEA",
"<X c None",
/* pixels */
"<X<X<X<X<X<X<X<X<X<X<X<X<X<X<X<X<X<X<X<X<X<X<X<X<X<X<X<X<X<X<X<X",
"<X<X<X<X<X<X<X<X<X<X<X<X<X<X<X<X<X<X<X<X<X<X<X<X<X<X<X<X<X<X<X<X",
"<X<X<X<X<X<X<X<X<X<X<X<X<X<X<X<X<X<X, V c.c.<X<X<X<X<X<X<X<X<X<X",
"<X<X<X<X<X<X<X<X<X<X<X<X<X<X<X<X> b S m.R.T.M.<X<X<X<X<X<X<X<X<X",
"<X<X<X<X<X<X<X<X<X<X<X<X<X<X> n s.N.z.! ^ J.Y.m.c.<X<X<X<X<X<X<X",
"<X<X<X<X<X<X<X<X<X<X<X<X> c A V.U.~ 6 w e 9 ] I.A.n.<X<X<X<X<X<X",
"<X<X<X<X<X<X<X<X<X<X- > n f.C.` 0 y h k g s w ^ K.h.<X<X<X<X<X<X",
"<X<X<X<X<X<X<X<X<X- 1 B N.[ R i +.4.w.w.8.z g 7 | K.A.<X<X<X<X<X",
"<X<X<X<X<X<X<X<Xx N f.) G i 3.9.y.i.2.>.;.w.z e ' .XH.<X<X<X<X<X",
"<X<X<X<X<X<Xx v d.l.F u h 6.a.XX^.!.`.).Q.,.6.i [ .XG.<X<X<X<X<X",
"<X<X<X<XO = D A.E./ 8 z 6.u./.!.].[.:X{.).XXw.O.=. .H.<X<X<X<X<X",
"<X<X<X@ * Z M.I.&XF a 5.y.Q.).{.:X:X:X{.}.-XoX@.=..XB.<X<X<X<X<X",
"<X<X<XO x Z.S.I.D.4 h w.2.(.{.:X:X:X:X:X[.>X+X<.W.&XB.<X<X<X<X<X",
"<X<Xo O b } K..X[ 7 3.y.Q.}.:X:X:X:X:X,X:X>X+X,.W.$X<X<X<X<X<X<X",
"<X<X@ O b Z...*X' 8 4.p.!.{.:X:X:X:X,X,X:X>X@X,.-.$X<X<X<X<X<X<X",
"<X<X<XO b h...*XY e 6.t.(.{.:X:X,X,X,X,X:X;X@Xq.&.=X<X<X<X<X<X<X",
"<X<X<X$ c g.P..XP r 8.2.(.{.:X,X,X,X,X,X:X].OXr.X. XB.<X<X<X<X<X",
"<X<X<X  X M F.K.I r 4.i.!.:X,X,X,X,X,X,X:X].OXy.f *.C.<X<X<X<X<X",
"<X<X<X<X. $ S G.] 6 h u.OX].,X,X,X,X:X:X:X}.~.i.$.R #X<X<X<X<X<X",
"<X<X<X<X<X  & A R.` Q y.+X'.[.:X,X:X:X:X:X{.!.t.0.q [ j.<X<X<X<X",
"<X<X<X<X<X<X  & C %X*.%.y.OX'.{.:X:X:X:X:X{._.:.8.y Y S.<X<X<X<X",
"<X<X<X<X<X<X<X& 3 ] |.Q %.i.XX^.].:X:X:X:X{.!.;.8.a P H.<X<X<X<X",
"<X<X<X<X<X<X<X<X& H P.|.X.0.e.oX!.].{.:X{.).K ,.5.y I S.<X<X<X<X",
"<X<X<X<X<X<X<X<X& & H x.E f 0.e.XX~.!.]._.>.,.7.g 5 T S.<X<X<X<X",
"<X<X<X<X<X<X<X<X<X<X& L x.G p $.w.a.oX>.J q.6.j 8 Y H.h.<X<X<X<X",
"<X<X<X<X<X<X<X<X<X<X$ c N.D.E q f $.6.q.q.5.d 7 Y R.n.<X<X<X<X<X",
"<X<X<X<X<X<X<X<X<X<X# * C F..X|.Y q p 5.5.s 7 / T.n.<X<X<X<X<X<X",
"<X<X<X<X<X<X<X<X<X<X<X% - s...L.%X] u w w 6 ( N.<X<X<X<X<X<X<X<X",
"<X<X<X<X<X<X<X<X<X<X<X<X. : g.Z...K.D.) ^ z.v.<X<X<X<X<X<X<X<X<X",
"<X<X<X<X<X<X<X<X<X<X<X<X<X<X<Xv.h.M.M.A.M.<X<X<X<X<X<X<X<X<X<X<X",
"<X<X<X<X<X<X<X<X<X<X<X<X<X<X<X<X<X<X<X<X<X<X<X<X<X<X<X<X<X<X<X<X",
"<X<X<X<X<X<X<X<X<X<X<X<X<X<X<X<X<X<X<X<X<X<X<X<X<X<X<X<X<X<X<X<X"
};
