/* XPM */
static char *result[] = {
/* columns rows colors chars-per-pixel */
"32 32 235 2 ",
"   c #1D2816",
".  c #1F331B",
"X  c #242515",
"o  c #2C2417",
"O  c #212719",
"+  c #292518",
"@  c #21371B",
"#  c #24341D",
"$  c #233A1E",
"%  c #253B1C",
"&  c #232E20",
"*  c #293426",
"=  c #5C221B",
"-  c #4C362D",
";  c #2B4521",
":  c #284522",
">  c #2C4823",
",  c #2C4A23",
"<  c #2D4A23",
"1  c #2F4D26",
"2  c #304B23",
"3  c #315027",
"4  c #315127",
"5  c #335727",
"6  c #325228",
"7  c #335628",
"8  c #34572A",
"9  c #355829",
"0  c #365A2A",
"q  c #375B2A",
"w  c #365B2B",
"e  c #355B2C",
"r  c #375C2C",
"t  c #385A2B",
"y  c #385D2C",
"u  c #385E2D",
"i  c #395E2D",
"p  c #3B602C",
"a  c #3B612D",
"s  c #3A602E",
"d  c #3A612E",
"f  c #3B612E",
"g  c #3A622E",
"h  c #3C632E",
"j  c #3C632F",
"k  c #3D642F",
"l  c #3C652F",
"z  c #3D662F",
"x  c #3D6630",
"c  c #3E6730",
"v  c #3E6830",
"b  c #3F6931",
"n  c #3F6932",
"m  c #4A6734",
"M  c #406A31",
"N  c #416B32",
"B  c #416C32",
"V  c #416C33",
"C  c #416D33",
"Z  c #426D32",
"A  c #426D33",
"S  c #416E33",
"D  c #426E34",
"F  c #436F34",
"G  c #457032",
"H  c #447133",
"J  c #437034",
"K  c #447034",
"L  c #447134",
"P  c #447135",
"I  c #447235",
"U  c #457235",
"Y  c #457335",
"T  c #467335",
"R  c #457336",
"E  c #477434",
"W  c #467436",
"Q  c #467536",
"!  c #477536",
"~  c #467537",
"^  c #477537",
"/  c #477637",
"(  c #477737",
")  c #4A7434",
"_  c #487636",
"`  c #487837",
"'  c #497837",
"]  c #497937",
"[  c #487838",
"{  c #487938",
"}  c #497938",
"|  c #497A38",
" . c #497A39",
".. c #4A7A39",
"X. c #4A7B39",
"o. c #4B7B39",
"O. c #4E7A3B",
"+. c #4A7C39",
"@. c #4B7C39",
"#. c #4A7D39",
"$. c #4A7E38",
"%. c #4B7F38",
"&. c #4B7D3A",
"*. c #4D7F39",
"=. c #4C7D3A",
"-. c #4C7E3A",
";. c #4C7F3A",
":. c #4D7F3A",
">. c #4C7F3B",
",. c #4D7F3B",
"<. c #4C783C",
"1. c #4C7C3D",
"2. c #4E7E3C",
"3. c #547F37",
"4. c #50723E",
"5. c #507839",
"6. c #51793B",
"7. c #537C3A",
"8. c #485146",
"9. c #505F4D",
"0. c #535C50",
"q. c #576A4D",
"w. c #557F45",
"e. c #577849",
"r. c #5A7A48",
"t. c #5C7F48",
"y. c #4F8139",
"u. c #4D803A",
"i. c #4D803B",
"p. c #4D813B",
"a. c #4E813B",
"s. c #4E823B",
"d. c #4F823B",
"f. c #4E813C",
"g. c #4E823C",
"h. c #4F833C",
"j. c #50843B",
"k. c #50833C",
"l. c #50843C",
"z. c #50853C",
"x. c #51853C",
"c. c #51863C",
"v. c #52873C",
"b. c #52863D",
"n. c #52873D",
"m. c #53873D",
"M. c #50843F",
"N. c #58843C",
"B. c #57893B",
"V. c #558A3B",
"C. c #53883D",
"Z. c #54893D",
"A. c #568B3E",
"S. c #568C3E",
"D. c #578D3E",
"F. c #588F3E",
"G. c #588F3F",
"H. c #598F3F",
"J. c #5A903F",
"K. c #5A913F",
"L. c #5A923F",
"P. c #5B933F",
"I. c #5C933F",
"U. c #5C943F",
"Y. c #528240",
"T. c #598042",
"R. c #5A8642",
"E. c #55854A",
"W. c #5F824F",
"Q. c #5D8A4A",
"!. c #5D894F",
"~. c #5C9340",
"^. c #5D9440",
"/. c #5D9540",
"(. c #5E9640",
"). c #5F9545",
"_. c #5F9841",
"`. c #5F8A5B",
"'. c #619344",
"]. c #649547",
"[. c #609840",
"{. c #609941",
"}. c #619A41",
"|. c #619B41",
" X c #629B41",
".X c #619842",
"XX c #629A43",
"oX c #629C41",
"OX c #639C41",
"+X c #639C42",
"@X c #639D42",
"#X c #649D42",
"$X c #649E42",
"%X c #649F42",
"&X c #659F42",
"*X c #659D44",
"=X c #659349",
"-X c #679F49",
";X c #689A4E",
":X c #699C4C",
">X c #688C53",
",X c #708F5C",
"<X c #74925E",
"1X c #68A046",
"2X c #7FAF47",
"3X c #79AA48",
"4X c #79A959",
"5X c #758E61",
"6X c #718964",
"7X c #778F64",
"8X c #6F9972",
"9X c #71A06D",
"0X c #7FA197",
"qX c #80A49B",
"wX c #83A59E",
"eX c #A2B58C",
"rX c #A9B997",
"tX c #ACBD98",
"yX c #8FB3AE",
"uX c #B1C19D",
"iX c #B6C6A2",
"pX c #B9C9A2",
"aX c #BBC3A9",
"sX c #CBD1B7",
"dX c #CDDEB4",
"fX c #CED7BA",
"gX c #D0D9BA",
"hX c #D3DDBC",
"jX c #D3DFBC",
"kX c #DCE6C4",
"lX c #DCE4C6",
"zX c #DDE6C7",
"xX c #DEE7C7",
"cX c #E4ECCC",
"vX c None",
/* pixels */
"vXvXvXvXvXvXvXvXvXvXvXvXvXvXvXvXvXvXvXvXvXvXvX% p L A 7 vXvXvXvX",
"vXvXvXvXvXvXvXvXvXvXvXvXvXvXvXvXvXvXvXvXvXe 3.2X3X'.M.u.#.vXvXvX",
"vXvXvXvXvXvXvXvXvXvXvXvXvXvXvXvXvXvXvXvXi H `.0XyXwX8X).k.-.X.vX",
"vXvXvXvXvXvXvXvXvXvXvXvXvXvXvXvXvXvXvX$ <.W.>X:X-XXX9XqXE.%.&./ ",
"vXvXvXvXvXvXvXvXvXvXvXvXvXvXvXvXvXvXvXw.rXfXzXdX4X1X;X!.1.&.,.-.",
"vXvXvXvXvXvXvXvXvXvXvXvXvXvXvXvXvXvX5 Q.iXlXcXxXhXkXpX,XY.;.i.,.",
"vXvXvXvXvXvXvXvXvXvXvXvXvXvXvXvXvXS E ) 6.5X7X<XjXsXaXuXQ.$.,.-.",
"vXvXvXvXvXvXvXvXvXvXvXvXvXvXvXvX4 9 ; # 4.R.B.=XeXgXtXe.2.p.X.Y ",
"vXvXvXvXvXvXvXvXvXvXvXvXvXvXvXvX} G 2 & 8.q.r.T.7.5.O.,.i.f.L , ",
"vXvXvXvXvXvXvXvXvXvXvXvXvXvXvXa X.V.t.0.* O + o   > N i.i.i.{ vX",
"vXvXvXvXvXvXvXvXvXvXvXvXvXvX< N =.~.OX].6X9.- = X : n i.i.[ U vX",
"vXvXvXvXvXvXvXvXvXvXvXvXvXF ( i.b.(.&X$X*X.XN.m t C -.i.i.k vXvX",
"vXvXvXvXvXvXvXvXvXvXvXvX. b p.l.(.@X$X$X$X@XK.,.-.>.i.,.@.vXvXvX",
"vXvXvXvXvXvXvXvXvXvXvXvX` -.p.n.}.%X$X$X@XD.g.i.i.i.a.X.8 vXvXvX",
"vXvXvXvXvXvXvXvXvXvXvX0 ..p.c.L.+X$X$X XH.z.i.i.i.i.i.&.vXvXvXvX",
"vXvXvXvXvXvXvXvXvXvXf -.i.h.F.@X$X$X/.m.s.i.i.i.i.a.Q u vXvXvXvX",
"vXvXvXvXvXvXvXvXvXZ _ i.a.P.$X$X@XD.f.i.i.i.i.>.i.i.` vXvXvXvXvX",
"vXvXvXvXvXvXvXvXs U -.l.(.@X%XoXJ.x.i.i.i.p.} K &.P z vXvXvXvXvX",
"vXvXvXvXvXvXvX3 } i.l.G. X$X%X}.x.i.i.i.i.i.o._ &.l vXvXvXvXvXvX",
"vXvXvXvXvXvXh -.i.i.A.@X$X$XoXI.h.,.i.i.i.i.i.@.v vXvXvXvXvXvXvX",
"vXvXvXvXvXT i.i.i.Z./.$X$X$XI.d.i.i.i.i.i.i.i.@.vXvXvXvXvXvXvXvX",
"vXvXvXvX .>.:.*.j.^.$X$X+XD.g.i.i.i.i.i.i.a.I 6 vXvXvXvXvXvXvXvX",
"vXvXvXc ! -.-.y.[.$X$X{.c.i.i.i.i.i.i.i.i.X./ vXvXvXvXvXvXvXvXvX",
"vXvXq +.-.i.S.OX$X$X(.C.a.i.i.i.i.i.i.i.&.y vXvXvXvXvXvXvXvXvXvX",
"vX` =.i.a.K.@X$X#X/.Z.i.i.i.i.i.i.i.i.[ 4 vXvXvXvXvXvXvXvXvXvXvX",
"@ B f.s.D.{.%X+XU.v.i.i.i.>.>.i.i.i.U r vXvXvXvXvXvXvXvXvXvXvXvX",
"d W i.l._.@X|.P.l.i.i.i.i.J J i.>.D g vXvXvXvXvXvXvXvXvXvXvXvXvX",
"~ +.i.a.c.v.l.a.i.i.i.i.i.' ] @.C vXvXvXvXvXvXvXvXvXvXvXvXvXvXvX",
"W +.i.i.i.i.i.i.i.i.i.i.i.,.} K vXvXvXvXvXvXvXvXvXvXvXvXvXvXvXvX",
"9 L i.i.i.i.i.i.i.i.i.i.-.^ V vXvXvXvXvXvXvXvXvXvXvXvXvXvXvXvXvX",
"vXx Y -.-.;.,.>.-.-.>.| w vXvXvXvXvXvXvXvXvXvXvXvXvXvXvXvXvXvXvX",
"vXvXvXvXq M R P j 1 vXvXvXvXvXvXvXvXvXvXvXvXvXvXvXvXvXvXvXvXvXvX"
};
