/* XPM */
static char *result[] = {
/* columns rows colors chars-per-pixel */
"32 32 236 2 ",
"   c #07AC02",
".  c #0BAD05",
"X  c #0BB403",
"o  c #0CBA03",
"O  c #07B001",
"+  c #12BC05",
"@  c #15BC0C",
"#  c #16B60C",
"$  c #1CBB12",
"%  c #24B713",
"&  c #24BB15",
"*  c #0EC401",
"=  c #0FC902",
"-  c #13C305",
";  c #13CB02",
":  c #1ACB06",
">  c #1BC10A",
",  c #1BCB08",
"<  c #1CC607",
"1  c #15D202",
"2  c #19D304",
"3  c #1BDB02",
"4  c #1ED808",
"5  c #21C50C",
"6  c #23CD0D",
"7  c #25CD0B",
"8  c #2CDE06",
"9  c #25D30B",
"0  c #28DA09",
"q  c #34DB0D",
"w  c #2BCD16",
"e  c #27C913",
"r  c #36CD1A",
"t  c #2CD412",
"y  c #2CD414",
"u  c #33D613",
"i  c #3BD613",
"p  c #34DB13",
"a  c #39D31B",
"s  c #37DC18",
"d  c #1EE601",
"f  c #23E204",
"g  c #28E308",
"h  c #32E40B",
"j  c #33EC0C",
"k  c #39E80B",
"l  c #28F103",
"z  c #37F30B",
"x  c #3EE310",
"c  c #3AD023",
"v  c #4DDC1B",
"b  c #46D919",
"n  c #5BDC19",
"m  c #63DD1C",
"M  c #41EE0E",
"N  c #49F40E",
"B  c #51F80F",
"V  c #43E414",
"C  c #49E515",
"Z  c #4CED15",
"A  c #43E21B",
"S  c #4AE51C",
"D  c #4CEA1B",
"F  c #46EA16",
"G  c #53EA1C",
"H  c #59EE1C",
"J  c #57E61F",
"K  c #48F315",
"L  c #58F318",
"P  c #69E017",
"I  c #7DE608",
"U  c #43CE24",
"Y  c #44D324",
"T  c #46D429",
"R  c #4EDA21",
"E  c #5CDD2B",
"W  c #5ADC23",
"Q  c #57D934",
"!  c #47CA31",
"~  c #63DD25",
"^  c #6ADF22",
"/  c #67DF2A",
"(  c #6FDF2A",
")  c #63DC34",
"_  c #68DA39",
"`  c #73DD3C",
"'  c #4CE324",
"]  c #4AE227",
"[  c #54E426",
"{  c #53EA23",
"}  c #5BEC23",
"|  c #5EE42C",
" . c #5CED2C",
".. c #57E32C",
"X. c #5AF425",
"o. c #5DE533",
"O. c #63ED2C",
"+. c #67E529",
"@. c #75E129",
"#. c #68F528",
"$. c #73FC23",
"%. c #62E533",
"&. c #64EA34",
"*. c #6AE33C",
"=. c #6DE937",
"-. c #72EF35",
";. c #74E53A",
":. c #73EC3A",
">. c #7AE439",
",. c #66F436",
"<. c #74F535",
"1. c #77F538",
"2. c #59D843",
"3. c #75DD47",
"4. c #65D44C",
"5. c #6AE744",
"6. c #7AEC45",
"7. c #77E947",
"8. c #7CF343",
"9. c #7BE65E",
"0. c #7EF353",
"q. c #BBF70C",
"w. c #BEF810",
"e. c #ACF11A",
"r. c #99EB2B",
"t. c #87E939",
"y. c #84F63D",
"u. c #88FA3B",
"i. c #93E833",
"p. c #A4ED2D",
"a. c #ACF12B",
"s. c #AEF223",
"d. c #A8F138",
"f. c #ADEF3B",
"g. c #C0F915",
"h. c #C1F81A",
"j. c #C0F71D",
"k. c #C4F822",
"l. c #C3F72C",
"z. c #C6F92C",
"x. c #C7F833",
"c. c #C8F934",
"v. c #CBF93D",
"b. c #C4F637",
"n. c #81DF5B",
"m. c #8BE54B",
"M. c #85E847",
"N. c #9EE843",
"B. c #98EA4A",
"V. c #85F547",
"C. c #86EC54",
"Z. c #8BEA56",
"A. c #8CE45C",
"S. c #87EA59",
"D. c #88E85B",
"F. c #86E351",
"G. c #93E755",
"H. c #93EB5D",
"J. c #97EA57",
"K. c #88F25B",
"L. c #96F65C",
"P. c #91FC49",
"I. c #A4EC49",
"U. c #B2ED4E",
"Y. c #AAF145",
"T. c #B9F246",
"R. c #ACEC5C",
"E. c #A2E95D",
"W. c #B0ED52",
"Q. c #92E46C",
"!. c #99E868",
"~. c #9AF56A",
"^. c #8EE871",
"/. c #9BE875",
"(. c #8AF06C",
"). c #ABEA64",
"_. c #A5E868",
"`. c #B8EF69",
"'. c #B8F163",
"]. c #A4EB71",
"[. c #A7EA7B",
"{. c #B5EC73",
"}. c #BCEF74",
"|. c #BAED7A",
" X c #AEF26F",
".X c #C5F542",
"XX c #CAF745",
"oX c #CEF948",
"OX c #CAF747",
"+X c #CDF857",
"@X c #D2F95E",
"#X c #D1F858",
"$X c #C8F569",
"%X c #D2F66A",
"&X c #D4F868",
"*X c #C5F374",
"=X c #C6F379",
"-X c #D6F773",
";X c #DAF779",
":X c #D7F87B",
">X c #D2F677",
",X c #9EEC86",
"<X c #AAE788",
"1X c #B8EB84",
"2X c #B2F58A",
"3X c #B6E894",
"4X c #B6F58F",
"5X c #C6EF87",
"6X c #C6F18A",
"7X c #CDF280",
"8X c #DAF784",
"9X c #D4F58D",
"0X c #DEF78B",
"qX c #DBF889",
"wX c #DBF983",
"eX c #C3EE94",
"rX c #C8EE98",
"tX c #D7F596",
"yX c #E0F89F",
"uX c #CBEFA0",
"iX c #CEF0A7",
"pX c #D6F4A7",
"aX c #DDF4B3",
"sX c #DBF2BC",
"dX c #D2EEA9",
"fX c #E5F7A9",
"gX c #E5F5B4",
"hX c #E4F5BD",
"jX c #E8F7B6",
"kX c #DAF1C1",
"lX c #ECF6CC",
"zX c #E8F3C9",
"xX c #EBF4D5",
"cX c #F1F5D5",
"vX c #F2F4E5",
"bX c None",
/* pixels */
"bXbXbXbXbXbXbXbXbXbXbXbXbX0X0XfX0X-X;XbXbXbXbXbXbXbXbXbXbXbXbXbX",
"bXbXbXbXbXbXbXbXq.j.XXtXzXrX1X=X=X*X$X@X+X&XqX-XbXbXbXbXbXbXbXbX",
"bXbXbXbXbXbXk.c.&X9XaXdXJ.^ m @.t.t.@.B.'.`.aXxXjX#XbXbXbXbXbXbX",
"bXbXbXbXh.c.:XpXpXiX/.@.^ >.m.J._.L.;.;.B.Y.}.sXvXlXbXbXbXbXbXbX",
"bXbXbXbXh.:XgX6X].` m ;.M.S.V.1.$.$.$.G b m t.).sXzXbXbXbXbXbXbX",
"bXbXbXh.&XpXtX{.t.>.M.| D 6.C.:.[ C x C D A i P {.hX:XbXbXbXbXbX",
"bXbXj.oXtXpX6XV.u.:.C N F 8.L <.6.=.b q X.,.X.i @.*XqXv.bXbXbXbX",
"bXz.;X0XpXuXZ.O.J 8 h g Q <.N X.O.P } b H P.L.K.b i.:X#Xh.bXbXbX",
"bXoXlXlXpX].<.y.V 8 7 5 c X.,.%.5.7.6.7.G =.2X4X!.n I.@Xv.bXbXbX",
"bXwXvXxX1XM.u.} u 7 < < x ' A F F S ,.K.~.7.O.].eXE m =X8XbXbXbX",
"bXqXvXxXZ.y.y.t 5 ; + 5 x F p 9 , , : 9 ] K.C.| !.G.P f.l.bXbXbX",
"bXv.gXkX!.P.3.Y 9 ; - V M 9 = ; ; , : - - p V.:.~ _.i.p.b.bXbXbX",
"bXOX9X4X~.<.4.a d ; t K g ; o O - - , 6 + + R 8.' M.R.a.b.XXbXbX",
"bXc.*X!.V.S U t d f N j ; o X 1 1 ; 1 , 6 + - { O.R E.T.OXk.bXbX",
"bXg.f.M.<.D r 9 - h N f * O 1 * . . o 1 7 @ X y #.V M.}.XXq.bXbX",
"bXc.d.:.<.{ a y > s z 3 * X 1 X   . & - 2 5 + > #.C *.R..Xx.bXbX",
"bX#XY.A.1.| c , > y g ; ; o ; = O % % o d 7 + + } G ..).$X-XbXbX",
"bXw.a.F.:.=.c e * 2 1 o 1 = o o O $ 7 : d 9 + + Z L +.|.XXbXbXbX",
"bXj.d.^ :.<.Y c 1 4 1 O - 4 1 - ; 9 { f g t + > N #.:.eX%XbXbXbX",
"bXz.I.n >.#.) ! s 4 = O . $ 5 - Q ] z l j 6 * 9 B 8.=.3XjXbXbXbX",
"bXq.I b m.7.6.U c 4 * O       $ 4.w l z y ; < V L K.*.rXxXbXbXbX",
"bX.Xi.v ^ E.%.O.T ] , @ # . # 2.,Xo.D s , y i Z <.(.+.R.bXbXbXbX",
"bXlXzX3X3.N.W F ,.&...e $ $ $ y 9.5.c w Q 4.{ L ~.0.@.r.bXbXbXbX",
"bXcXgX3X<XrXG.i S  .6.5.y - o @ e T Q ..T ] L y.2X7.N.s.bXbXbXbX",
"bXbXb.W._ _ n./ b S ;.K.0.7.&.%.&...i 9 h N u.4X~.J.p..XbXbXbXbX",
"bXbXl..X!.R ~ J v 9 p  .,.5.o.A p 0 g k Z u.2X/.A.I.e.bXbXbXbXbX",
"bXbXbXv.T.B.n.C.X.g 0 M z j 0 8 h k Z #.L.<XQ.D._.U.bXbXbXbXbXbX",
"bXbXbXh.b.`.t.!.<X9.] G } } }  .,.:.H.[.^.5.F._.5X.XbXbXbXbXbXbX",
"bXbXbXbXj.@X|.t.*.9./.Q.D.D.S.!.[.Q.n.5.+.m.{.6X@XbXbXbXbXbXbXbX",
"bXbXbXbXbXz.@XT.t.+.~ ` !.A.A.[.!.+.@.m.).5X9X;Xk.bXbXbXbXbXbXbX",
"bXbXbXbXbXbXv.l.c.%XT.f.*X6XeX6XI.'.=X9X8X%XoXbXbXbXbXbXbXbXbXbX",
"bXbXbXbXbXbXbXbX+X@XXX%XfXhXhXfXfXjXbXbXbXbXbXbXbXbXbXbXbXbXbXbX"
};
