/* XPM */
static char *_cce615729a144dca5eb7be08edbd84aNXj3CW5ttk9oA36Z[] = {
/* columns rows colors chars-per-pixel */
"32 32 147 2 ",
"   c None",
".  c black",
"X  c #020203",
"o  c #020304",
"O  c #030609",
"+  c #05060A",
"@  c #05060B",
"#  c #05080B",
"$  c #07080C",
"%  c #06080E",
"&  c #1B000B",
"*  c #0F100D",
"=  c #0D0F12",
"-  c #090C16",
";  c #0B0E19",
":  c #100E18",
">  c #1C0C18",
",  c #0D1017",
"<  c #0E1117",
"1  c #131210",
"2  c #11151D",
"3  c #13141E",
"4  c #3D031D",
"5  c #3D061E",
"6  c #28101A",
"7  c #321618",
"8  c #121728",
"9  c #141728",
"0  c #15192A",
"q  c #2E0920",
"w  c #300E23",
"e  c #241124",
"r  c #251125",
"t  c #261F20",
"y  c #25162A",
"u  c #2C1528",
"i  c #25192D",
"p  c #321327",
"a  c #361126",
"s  c #341228",
"d  c #391129",
"f  c #1C2134",
"g  c #212836",
"h  c #44001B",
"j  c #47001B",
"k  c #47011B",
"l  c #40021C",
"z  c #41051E",
"x  c #47041E",
"c  c #4C021C",
"v  c #4F031D",
"b  c #4F061F",
"n  c #56031E",
"m  c #52041E",
"M  c #5F041F",
"N  c #62041E",
"B  c #450A22",
"V  c #440B24",
"C  c #4B0820",
"Z  c #500721",
"A  c #530620",
"S  c #590E25",
"D  c #5F0C26",
"F  c #511925",
"G  c #5F1E37",
"H  c #600620",
"J  c #610922",
"K  c #650822",
"L  c #630C23",
"P  c #6C0922",
"I  c #700B24",
"U  c #7E0F24",
"Y  c #661F37",
"T  c #6E1F33",
"R  c #6B1E37",
"E  c #443225",
"W  c #473328",
"Q  c #50223A",
"!  c #58213A",
"~  c #7A2430",
"^  c #752E35",
"/  c #7C3136",
"(  c #6D4F3C",
")  c #3A2941",
"_  c #2B3441",
"`  c #2C3542",
"'  c #2C364B",
"]  c #313148",
"[  c #303B52",
"{  c #5B2841",
"}  c #4B364D",
"|  c #473C50",
" . c #6F2A43",
".. c #72334B",
"X. c #743A49",
"o. c #37434F",
"O. c #354057",
"+. c #384350",
"@. c #384450",
"#. c #484A63",
"$. c #445362",
"%. c #4C5068",
"&. c #54677E",
"*. c #56687F",
"=. c #830F26",
"-. c #821025",
";. c #855042",
":. c #997B5E",
">. c #A6705A",
",. c #955F63",
"<. c #856063",
"1. c #976668",
"2. c #857775",
"3. c #8D7A76",
"4. c #8B7D78",
"5. c #9B7271",
"6. c #A97860",
"7. c #978257",
"8. c #B99A51",
"9. c #B8A75F",
"0. c #BEA461",
"q. c #C9B45A",
"w. c #C9B85D",
"e. c #C1A963",
"r. c #CEA17E",
"t. c #D8C767",
"y. c #E2D570",
"u. c #E6DA73",
"i. c #E6DB73",
"p. c #5C7187",
"a. c #878685",
"s. c #9E9684",
"d. c #A89289",
"f. c #B1968C",
"g. c #B3978D",
"h. c #CFA684",
"j. c #D7B383",
"k. c #CBAC9D",
"l. c #E3BF94",
"z. c #D2C2AE",
"x. c #C9C4B2",
"c. c #CDC4B0",
"v. c #D6C9B2",
"b. c #D4CBB4",
"n. c #DDCFB7",
"m. c #DDD2B9",
"M. c #E0D5BC",
/* pixels */
"                                                                ",
"                                                                ",
"                                                                ",
"                                                                ",
"                                                                ",
"                                                                ",
"                                                                ",
"                          t.y.i.i.                              ",
"                          q.w.0.e.                              ",
"                          8.9.:.7.                              ",
"                          ;.j.l.h.                              ",
"                        q C 6.r.X.  . . . = $.                  ",
"                      4 w b ^ >.T | # @ @ % o.                  ",
"                    h n S r A ~ L } > : 2 < @.                  ",
"                    c I u 8 r 5 s ) l F W . +.                  ",
"                    M     9 f ' [   & 6 t o _                   ",
"                  7 /   % 0 O.*.&.  O - ; 2 `                   ",
"                  ( E *   B G  .R   . . . . g                   ",
"                    1 s.d.z N K {     . . <                     ",
"                      x.c.<.m D #.p.                            ",
"                      Y 2.v.,.A ] %...                          ",
"                    =.U p 4.z.1.y d -.                          ",
"                    Q a   x g.n.3.i !                           ",
"                  P V         g.b.a.                            ",
"                  c             5.M.                            ",
"                H h           h J k.m.                          ",
"                                                                ",
"                                                                ",
"                                                                ",
"                                                                ",
"                                                                ",
"                                                                "
};
