/* XPM */
static char *result[] = {
/* columns rows colors chars-per-pixel */
"32 32 159 2 ",
"   c #442E1A",
".  c #47301B",
"X  c #55391F",
"o  c #5B3E20",
"O  c #654423",
"+  c #6A4725",
"@  c #6D4A26",
"#  c #66482C",
"$  c #714C27",
"%  c #744E28",
"&  c #7B522A",
"*  c #7F5B3E",
"=  c #545354",
"-  c #705545",
";  c #81572C",
":  c #85592D",
">  c #8A5C2E",
",  c #8D5F30",
"<  c #8E6034",
"1  c #8F633A",
"2  c #966432",
"3  c #986533",
"4  c #90653D",
"5  c #926741",
"6  c #936943",
"7  c #996F4A",
"8  c #9A6846",
"9  c #886753",
"0  c #8F6C57",
"q  c #906D53",
"w  c #8E715E",
"e  c #9E7451",
"r  c #B27049",
"t  c #A27453",
"y  c #A17856",
"u  c #A47B5C",
"i  c #A87F5D",
"p  c #A17A62",
"a  c #98934F",
"s  c #AA805F",
"d  c #A4826B",
"f  c #B28867",
"g  c #AF8A72",
"h  c #AA8C7A",
"j  c #B28D76",
"k  c #B88C70",
"l  c #B08E79",
"z  c #BB9071",
"x  c #BB9278",
"c  c #BBB561",
"v  c #DA8858",
"b  c #E38E5B",
"n  c #EE955F",
"m  c #D49862",
"M  c #C49678",
"N  c #C3987E",
"B  c #C99D7D",
"V  c #EF9660",
"C  c #FC9F66",
"Z  c #C7B76F",
"A  c #CBBC6F",
"S  c #D0BF6D",
"D  c #C1A972",
"F  c #C7B570",
"G  c #C9B374",
"H  c #C9B870",
"J  c #CCB179",
"K  c #FDAE6A",
"L  c #C7C365",
"P  c #D1C66F",
"I  c #D3CA6E",
"U  c #D7D26D",
"Y  c #D4CA70",
"T  c #DBD571",
"R  c #F9C370",
"E  c #F9CA72",
"W  c #E3DF73",
"Q  c #EAE576",
"!  c #ECE877",
"~  c #EEE978",
"^  c #E5E174",
"/  c #F4E579",
"(  c #F3EE7B",
")  c #F5F07C",
"_  c #888788",
"`  c #95918F",
"'  c #9D9998",
"]  c #B49787",
"[  c #B09A8D",
"{  c #B49F94",
"}  c #BEA288",
"|  c #B7A297",
" . c #B3A890",
".. c #BBA896",
"X. c #ACA8A6",
"o. c #A9A8A9",
"O. c #B4AEAC",
"+. c #BBB1AD",
"@. c #B7B7B7",
"#. c #BCBABA",
"$. c #C69D82",
"%. c #CB9E83",
"&. c #CDA184",
"*. c #CCA38A",
"=. c #D2A385",
"-. c #D0AF80",
";. c #DEA886",
":. c #D7A88B",
">. c #DCAD8E",
",. c #D3A589",
"<. c #D2B083",
"1. c #DBB38C",
"2. c #C7A896",
"3. c #C9AB98",
"4. c #CBAE93",
"5. c #D2AC94",
"6. c #DEAF90",
"7. c #D3AF98",
"8. c #DEB192",
"9. c #D3B19A",
"0. c #DAB29A",
"q. c #D3B093",
"w. c #E2AC8A",
"e. c #E3B494",
"r. c #EAB695",
"t. c #E9B997",
"y. c #E1B599",
"u. c #E6B99A",
"i. c #EDBC9B",
"p. c #E5B894",
"a. c #F1BE9D",
"s. c #CCB3A3",
"d. c #CCB7AA",
"f. c #C7B6AC",
"g. c #D1B3A0",
"h. c #C6B8B1",
"j. c #CBBCB3",
"k. c #F3C09F",
"l. c #CEC3BB",
"z. c #F6C3A1",
"x. c #FBC6A4",
"c. c #FEC9A6",
"v. c #FFCBA8",
"b. c #C5C4C4",
"n. c gray79",
"m. c #D3CAC5",
"M. c #D1CBC8",
"N. c #D2D0CF",
"B. c #D9D5D3",
"V. c #DFDAD7",
"C. c #DBDAD9",
"Z. c #E2DDDB",
"A. c #E3E1DF",
"S. c #E5E3E2",
"D. c #E8E7E6",
"F. c #EBEBEB",
"G. c #F3F3F4",
"H. c #F9F9F9",
"J. c None",
/* pixels */
"J.J.J.J.J.J.J.J.J.J.  X @ : 2 2 2 3 2 3 2 & X J.J.J.J.J.J.J.J.J.",
"J.J.J.J.J.J.J.J.X + % & < 3 3 2 3 2 2 3 3 3 2 & J.J.J.J.J.J.J.J.",
"J.J.J.J.J.J.  @ & & ; 2 3 3 2 3 2 3 3 2 3 2 2 3 : J.J.J.J.J.J.J.",
"J.J.J.J.J.  $ & & ; 2 2 3 2 3 3 3 3 2 3 3 2 3 3 3 ; J.J.J.J.J.J.",
"J.J.J.J.  @ & & : 2 2 2 3 3 < < 1 1 4 1 < 2 3 3 2 3 & J.J.J.J.J.",
"J.J.J.  $ & & > 2 2 2 2 < 7 f D >.p.r.>.B u 4 < 2 3 2 O J.J.J.J.",
"J.J.J.+ & % ; 2 2 2 , y =.k.v.c.v.v.v.v.v.v.t.B e , 3 & J.J.J.J.",
"J.J.o & & & 2 3 2 5 $.x.c.c.v.x.v.c.c.c.x.v.v.v.z.z 1 & J.J.J.J.",
"J.J.@ & & ; 3 2 7 >.v.v.x.v.x.v.x.v.x.v.v.v.x.v.v.v.M # J.J.J.J.",
"J.  % & & 2 2 5 e.v.v.x.v.v.v.c.c.x.v.v.x.x.v.x.c.c.c.d J.J.J.J.",
"J.X & & ; 3 < &.c.v.x.v.x.e.>.>.i.x.c.v.v.x.v.v.c.c.c.a.j J.J.J.",
"J.o & & > 2 d x.x.x.v.x.i.>.*.[ f.g.e.k.v.v.x.v.c.c.v.i.3.' J.J.",
"J.O & ; 2 1 w.v.4.q.c.c.c.p.l.G.H.F.B.d.0.k.t.8.i.v.0.j.F.H.b.J.",
"J.@ & : 2 u x.x.} 8.c.c.k.j.H.H.H.H.H.G.A.| x >.%.3.M.G.H.H.n.= ",
"  % & : , %.v.v.x.v.x.c.0.V.H.H.H.H.H.H.G.` *.v.5.B.H.H.H.H.C._ ",
"o & & , 1 y.v.z.v.x.c.x.g.G.G.F.S.S.F.H.G.#.5.v.0.D.H.H.H.H.H.#.",
"X & & > 7 z.r...i.c.c.c.2.j.s.7.0.0.9.d.Z.Z.0.v.0.A.H.H.H.H.G.o.",
"  $ & ; y x.u. .i.c.c.v.%.6.c.c.c.c.v.z.0.{ t.v.i.m.H.H.H.H.D._ ",
"J.o & & u x.x.i.x.c.c.c.u.,.x.c.v.v.v.v.i.$.x.x.z.9.C.H.H.G.X.J.",
"J.J.% $ 0 6.c.c.c.c.c.c.c.6.8.c.x.x.v.i.&.a.v.c.=.e.9.j.l.s.l J.",
"J.J.O : &.x.c.c.c.c.c.c.c.c.x.c.v.x.v.x.k.v.a.k.a.%.x.a.i.x.$.J.",
"J.J.. p w.a.c.c.c.c.c.c.c.c.c.c.x.v.v.c.c.c.t.%.%.6.v.c.v.v.j J.",
"J.J.J.p w.w.z.c.c.c.c.c.c.c.c.c.v.c.k.t.e.t.z.v.z.v.c.c.v.z.w J.",
"J.J.J.- M ;.r.c.c.x.c.c.c.c.c.c.k.5.j.+.M.m.| 9.a.v.c.v.v.8.J.J.",
"J.J.J.J.J.w k a.c.c.c.c.c.c.c.x.N ] h.O.Z.N.b.+.$.c.v.v.x.j J.J.",
"J.J.J.J.J.J.9 ,.e.p.x.c.c.z.r.>.>.c.p.j y.*.h *.%.:.x.c.p.J.J.J.",
"J.J.J.J.J.J.J.t m P -.c.v.a.%.e.z.v.v.:.z.v.t.w.v.i.x.k.d J.J.J.",
"J.J.J.J.J.J.8 n E ) P e.c.c.,.,.>.c.v.x.v.v.v.x.v.v.k.d J.J.J.J.",
"J.J.J.J.J.J.b K / ) ^ <.c.c.z.p.z.c.c.c.x.v.v.x.v.a.G a J.J.J.J.",
"J.J.J.J.J.r K E ( ( ~ D a.c.c.v.v.v.c.c.v.v.v.x.1.H Q L J.J.J.J.",
"J.J.J.J.J.v K / ( ( ( c G J -.1.p.i.a.a.i.p.>.J Y ( ) I J.J.J.J.",
"J.J.J.J.J.V R / ( ( ~ W ( ! W T I A F H A P T Q ! ( ) U J.J.J.J."
};
